<svg version="1.1" id="Layer_1" xmlns="http://www.w3.org/2000/svg" xmlns:xlink="http://www.w3.org/1999/xlink" x="0px" y="0px"
	 width="100%" viewBox="0 0 125 113" enable-background="new 0 0 125 113" xml:space="preserve">
<path fill="none" opacity="1.000000" stroke="none" 
	d="
M79.000000,114.000000 
	C52.666668,114.000000 26.833334,114.000000 1.000000,114.000000 
	C1.000000,76.333336 1.000000,38.666668 1.000000,1.000000 
	C42.666668,1.000000 84.333336,1.000000 126.000000,1.000000 
	C126.000000,38.666668 126.000000,76.333336 126.000000,114.000000 
	C110.500000,114.000000 95.000000,114.000000 79.000000,114.000000 
M98.785866,72.865807 
	C97.290611,81.566452 93.815880,84.541924 85.037132,84.625084 
	C83.204315,84.642441 81.354637,84.789986 79.541122,84.602684 
	C71.863304,83.809685 65.109528,84.676895 61.097950,92.635979 
	C59.500092,95.806160 56.449970,95.729721 54.895493,92.615700 
	C50.894836,84.601341 44.098995,83.875771 36.440487,84.593697 
	C33.963013,84.825951 31.441023,84.714783 28.946167,84.605759 
	C21.209801,84.267685 16.982355,79.958015 16.944008,72.277283 
	C16.887434,60.946468 16.897839,49.615047 16.939819,38.284103 
	C16.968647,30.502960 21.102402,26.205750 28.899815,25.981663 
	C34.227757,25.828543 39.563538,25.946924 44.895813,25.946314 
	C54.727207,25.945190 64.560043,26.024662 74.388153,25.845179 
	C75.606010,25.822935 76.798790,24.427731 78.003181,23.668726 
	C76.866104,22.957539 75.759026,22.189203 74.574989,21.567442 
	C74.182594,21.361393 73.592148,21.531311 73.092255,21.531338 
	C58.595116,21.532078 44.097610,21.470310 29.600952,21.554403 
	C18.519018,21.618689 12.451762,27.837002 12.380695,39.062744 
	C12.324786,47.893978 12.781516,56.749195 12.282179,65.552444 
	C11.328768,82.360954 16.921001,90.536827 35.646309,88.949234 
	C42.537758,88.364960 48.006714,89.464020 52.017948,96.071617 
	C54.846928,100.731712 61.129845,100.931541 63.762562,96.373146 
	C67.922249,89.170898 73.877617,88.307991 80.991592,88.967537 
	C83.303543,89.181885 85.658295,89.073174 87.985725,88.957062 
	C96.426941,88.535934 102.775330,82.416771 103.102150,73.971489 
	C103.379021,66.816704 103.285149,59.640545 103.089394,52.481117 
	C103.055008,51.223263 101.708786,50.001270 100.968391,48.762718 
	C100.245056,50.000694 98.937874,51.219482 98.896439,52.479877 
	C98.683044,58.971642 98.794403,65.474083 98.785866,72.865807 
M103.652222,36.294765 
	C106.441612,34.305683 109.154846,32.196560 112.043556,30.364046 
	C114.524460,28.790222 115.252388,26.880016 112.354256,25.652830 
	C106.650513,23.237644 102.796860,19.367708 100.555939,13.662663 
	C100.267151,12.927458 99.125481,12.527263 98.060905,11.735327 
	C97.119133,13.026340 96.103493,13.955124 95.662186,15.104436 
	C93.825935,19.886677 90.520271,23.031687 85.825005,24.999100 
	C84.648201,25.492207 83.063324,26.980406 83.120911,27.922338 
	C83.184364,28.960405 84.886681,29.937645 85.939728,30.868229 
	C88.714073,33.319939 91.625244,35.626949 94.280563,38.199421 
	C95.862083,39.731590 97.063515,41.656090 98.435822,43.404213 
	C99.897835,41.539047 101.366753,39.679207 102.813774,37.802486 
	C103.011040,37.546642 103.098938,37.206463 103.652222,36.294765 
M82.313644,51.958752 
	C82.978104,51.958820 83.718224,52.150654 84.293167,51.923820 
	C86.189453,51.175686 88.026009,50.276127 89.885498,49.434700 
	C88.080818,48.714359 86.287102,47.404587 84.469643,47.370754 
	C73.841995,47.172913 63.207050,47.179241 52.579315,47.374775 
	C50.970116,47.404381 49.385727,48.782944 47.789860,49.537540 
	C49.344147,50.344471 50.883507,51.814487 52.455166,51.849873 
	C62.084930,52.066696 71.722015,51.958611 82.313644,51.958752 
M31.419374,41.910255 
	C29.889688,41.459347 28.360001,41.008442 26.830313,40.557537 
	C27.308041,42.052040 27.387253,43.902290 28.341576,44.971352 
	C30.768450,47.690010 33.507565,50.150913 36.272655,52.540291 
	C38.639137,54.585224 38.490490,56.205177 36.171284,58.188057 
	C33.141460,60.778511 30.219707,63.515568 27.465803,66.394577 
	C26.762531,67.129807 26.867237,68.637894 26.600721,69.790894 
	C27.904282,69.718948 29.636110,70.158302 30.437628,69.486961 
	C34.000847,66.502441 37.431217,63.328148 40.652237,59.975212 
	C43.721260,56.780502 43.309803,53.283989 40.349228,50.227184 
	C37.692608,47.484211 34.778061,44.991043 31.419374,41.910255 
M86.983536,58.851391 
	C75.171638,58.850506 63.358860,58.784588 51.549171,58.945522 
	C50.316463,58.962318 49.102062,60.322094 47.879166,61.058765 
	C48.819145,61.748863 49.752651,63.029179 50.700092,63.039574 
	C62.843143,63.172840 74.988533,63.161659 87.131996,63.046711 
	C88.033501,63.038177 88.924828,61.953823 89.820885,61.369602 
	C89.174477,60.550785 88.528069,59.731968 86.983536,58.851391 
M57.559330,70.052834 
	C55.410545,70.053757 53.221741,69.809296 51.128494,70.150719 
	C49.936378,70.345161 48.900341,71.496483 47.794025,72.216919 
	C48.795910,73.032936 49.775623,74.521767 50.803284,74.555641 
	C57.407791,74.773293 64.026207,74.778931 70.630936,74.568459 
	C71.703522,74.534279 72.730812,73.078575 73.779030,72.279922 
	C72.664787,71.539711 71.588570,70.239830 70.429398,70.161087 
	C66.480492,69.892853 62.502346,70.054993 57.559330,70.052834 
M69.075043,35.950378 
	C63.078945,35.951340 57.078846,35.840584 51.090416,36.055363 
	C50.001362,36.094421 48.960037,37.464214 47.896683,38.219692 
	C48.999306,38.895264 50.085472,40.121681 51.207279,40.155201 
	C57.530849,40.344166 63.865841,40.344055 70.189667,40.159412 
	C71.372192,40.124889 72.521698,38.959591 73.686447,38.316128 
	C72.449722,37.527637 71.213005,36.739147 69.075043,35.950378 
z"/>
<path fill="#181818" opacity="1.000000" stroke="none" 
	d="
M98.789139,72.419304 
	C98.794403,65.474083 98.683044,58.971642 98.896439,52.479877 
	C98.937874,51.219482 100.245056,50.000694 100.968391,48.762718 
	C101.708786,50.001270 103.055008,51.223263 103.089394,52.481117 
	C103.285149,59.640545 103.379021,66.816704 103.102150,73.971489 
	C102.775330,82.416771 96.426941,88.535934 87.985725,88.957062 
	C85.658295,89.073174 83.303543,89.181885 80.991592,88.967537 
	C73.877617,88.307991 67.922249,89.170898 63.762562,96.373146 
	C61.129845,100.931541 54.846928,100.731712 52.017948,96.071617 
	C48.006714,89.464020 42.537758,88.364960 35.646309,88.949234 
	C16.921001,90.536827 11.328768,82.360954 12.282179,65.552444 
	C12.781516,56.749195 12.324786,47.893978 12.380695,39.062744 
	C12.451762,27.837002 18.519018,21.618689 29.600952,21.554403 
	C44.097610,21.470310 58.595116,21.532078 73.092255,21.531338 
	C73.592148,21.531311 74.182594,21.361393 74.574989,21.567442 
	C75.759026,22.189203 76.866104,22.957539 78.003181,23.668728 
	C76.798790,24.427731 75.606010,25.822935 74.388153,25.845179 
	C64.560043,26.024662 54.727207,25.945190 44.895813,25.946314 
	C39.563538,25.946924 34.227757,25.828543 28.899815,25.981663 
	C21.102402,26.205750 16.968647,30.502960 16.939819,38.284103 
	C16.897839,49.615047 16.887434,60.946468 16.944008,72.277283 
	C16.982355,79.958015 21.209801,84.267685 28.946167,84.605759 
	C31.441023,84.714783 33.963013,84.825951 36.440487,84.593697 
	C44.098995,83.875771 50.894836,84.601341 54.895493,92.615700 
	C56.449970,95.729721 59.500092,95.806160 61.097950,92.635979 
	C65.109528,84.676895 71.863304,83.809685 79.541122,84.602684 
	C81.354637,84.789986 83.204315,84.642441 85.037132,84.625084 
	C93.815880,84.541924 97.290611,81.566452 98.789139,72.419304 
z"/>
<path fill="#161616" opacity="1.000000" stroke="none" 
	d="
M103.444847,36.600052 
	C103.098938,37.206463 103.011040,37.546642 102.813774,37.802486 
	C101.366753,39.679207 99.897835,41.539047 98.435822,43.404213 
	C97.063515,41.656090 95.862083,39.731590 94.280563,38.199421 
	C91.625244,35.626949 88.714073,33.319939 85.939728,30.868229 
	C84.886681,29.937645 83.184364,28.960405 83.120911,27.922338 
	C83.063324,26.980406 84.648201,25.492207 85.825005,24.999100 
	C90.520271,23.031687 93.825935,19.886677 95.662186,15.104436 
	C96.103493,13.955124 97.119133,13.026340 98.060905,11.735327 
	C99.125481,12.527263 100.267151,12.927458 100.555939,13.662663 
	C102.796860,19.367708 106.650513,23.237644 112.354256,25.652830 
	C115.252388,26.880016 114.524460,28.790222 112.043556,30.364046 
	C109.154846,32.196560 106.441612,34.305683 103.444847,36.600052 
M94.402420,24.986191 
	C93.160660,25.907818 91.918900,26.829443 90.677147,27.751070 
	C91.209915,27.385357 91.742683,27.019644 92.275452,26.653929 
	C94.764572,29.290318 97.253693,31.926704 99.742813,34.563091 
	C98.873398,34.369793 98.003990,34.176495 97.134575,33.983196 
	C99.960068,31.625650 102.785561,29.268105 105.611046,26.910557 
	C105.357208,27.534910 105.103363,28.159264 104.849525,28.783617 
	C102.324181,26.263788 99.798843,23.743958 97.273506,21.224129 
	C97.683685,20.785025 98.093872,20.345921 98.504059,19.906816 
	C97.317047,21.439230 96.130043,22.971645 94.402420,24.986191 
z"/>
<path fill="#272727" opacity="1.000000" stroke="none" 
	d="
M81.835152,51.958748 
	C71.722015,51.958611 62.084930,52.066696 52.455166,51.849873 
	C50.883507,51.814487 49.344147,50.344471 47.789860,49.537540 
	C49.385727,48.782944 50.970116,47.404381 52.579315,47.374775 
	C63.207050,47.179241 73.841995,47.172913 84.469643,47.370754 
	C86.287102,47.404587 88.080818,48.714359 89.885498,49.434704 
	C88.026009,50.276127 86.189453,51.175686 84.293167,51.923820 
	C83.718224,52.150654 82.978104,51.958820 81.835152,51.958748 
z"/>
<path fill="#1A1A1A" opacity="1.000000" stroke="none" 
	d="
M31.698334,42.148964 
	C34.778061,44.991043 37.692608,47.484211 40.349228,50.227184 
	C43.309803,53.283989 43.721260,56.780502 40.652237,59.975212 
	C37.431217,63.328148 34.000847,66.502441 30.437628,69.486961 
	C29.636110,70.158302 27.904282,69.718948 26.600721,69.790894 
	C26.867237,68.637894 26.762531,67.129807 27.465803,66.394577 
	C30.219707,63.515568 33.141460,60.778511 36.171284,58.188057 
	C38.490490,56.205177 38.639137,54.585224 36.272655,52.540291 
	C33.507565,50.150913 30.768450,47.690010 28.341576,44.971352 
	C27.387253,43.902290 27.308041,42.052040 26.830313,40.557537 
	C28.360001,41.008442 29.889688,41.459347 31.698334,42.148964 
z"/>
<path fill="#0E0E0E" opacity="1.000000" stroke="none" 
	d="
M87.432594,58.882271 
	C88.528069,59.731968 89.174477,60.550785 89.820885,61.369602 
	C88.924828,61.953823 88.033501,63.038177 87.131996,63.046711 
	C74.988533,63.161659 62.843143,63.172840 50.700092,63.039574 
	C49.752651,63.029179 48.819145,61.748863 47.879166,61.058769 
	C49.102062,60.322094 50.316463,58.962318 51.549171,58.945522 
	C63.358860,58.784588 75.171638,58.850506 87.432594,58.882271 
z"/>
<path fill="#2E2E2E" opacity="1.000000" stroke="none" 
	d="
M58.047348,70.052841 
	C62.502346,70.054993 66.480492,69.892853 70.429398,70.161087 
	C71.588570,70.239830 72.664787,71.539711 73.779030,72.279922 
	C72.730812,73.078575 71.703522,74.534279 70.630936,74.568459 
	C64.026207,74.778931 57.407791,74.773293 50.803284,74.555641 
	C49.775623,74.521767 48.795910,73.032936 47.794025,72.216919 
	C48.900341,71.496483 49.936378,70.345161 51.128494,70.150719 
	C53.221741,69.809296 55.410545,70.053757 58.047348,70.052841 
z"/>
<path fill="#0C0C0C" opacity="1.000000" stroke="none" 
	d="
M69.525665,35.950516 
	C71.213005,36.739147 72.449722,37.527637 73.686447,38.316128 
	C72.521698,38.959591 71.372192,40.124889 70.189667,40.159412 
	C63.865841,40.344055 57.530849,40.344166 51.207279,40.155201 
	C50.085472,40.121681 48.999306,38.895264 47.896683,38.219692 
	C48.960037,37.464214 50.001362,36.094421 51.090416,36.055363 
	C57.078846,35.840584 63.078945,35.951340 69.525665,35.950516 
z"/>
<path fill="#EFEFEF" opacity="1.000000" stroke="none" 
	d="
M94.672729,24.745125 
	C96.130043,22.971645 97.317047,21.439230 98.504059,19.906816 
	C98.093872,20.345921 97.683685,20.785025 97.273506,21.224129 
	C99.798843,23.743958 102.324181,26.263788 104.849525,28.783617 
	C105.103363,28.159264 105.357208,27.534910 105.611046,26.910557 
	C102.785561,29.268105 99.960068,31.625650 97.134575,33.983196 
	C98.003990,34.176495 98.873398,34.369793 99.742813,34.563091 
	C97.253693,31.926704 94.764572,29.290318 92.275452,26.653929 
	C91.742683,27.019644 91.209915,27.385357 90.677147,27.751070 
	C91.918900,26.829443 93.160660,25.907818 94.672729,24.745125 
z"/>
</svg>